<svg class="heading-arrows" xmlns="http://www.w3.org/2000/svg" width="60" height="60" viewBox="0 0 60 60" fill="none"><g clip-path="url(#clip0_310_19)"><path d="M51.7925 32.65C52.4948 31.9469 52.8892 30.9938 52.8892 30C52.8892 29.0063 52.4948 28.0531 51.7925 27.35L37.6525 13.2025C36.949 12.499 35.9949 12.1038 35 12.1038C34.0051 12.1038 33.051 12.499 32.3475 13.2025C31.644 13.906 31.2488 14.8601 31.2488 15.855C31.2488 16.8499 31.644 17.804 32.3475 18.5075L40.0875 26.25L11.25 26.25C10.2555 26.25 9.30164 26.6451 8.59837 27.3484C7.89511 28.0516 7.50002 29.0055 7.50002 30C7.50002 30.9946 7.89511 31.9484 8.59837 32.6517C9.30163 33.3549 10.2555 33.75 11.25 33.75L40.0875 33.75L32.3475 41.49C31.9992 41.8384 31.7229 42.2519 31.5344 42.707C31.3458 43.1621 31.2488 43.6499 31.2488 44.1425C31.2488 44.6351 31.3458 45.1229 31.5344 45.578C31.7229 46.0332 31.9992 46.4467 32.3475 46.795C32.6958 47.1434 33.1094 47.4197 33.5645 47.6082C34.0196 47.7967 34.5074 47.8937 35 47.8937C35.4926 47.8937 35.9804 47.7967 36.4355 47.6082C36.8907 47.4197 37.3042 47.1434 37.6525 46.795L51.7925 32.65Z" fill="#7214FF"/></g><defs><clipPath id="clip0_310_19"><rect width="60" height="60" fill="white" transform="translate(60) rotate(90)"/></clipPath></defs></svg>